# xmcd
#
# Track frame offsets: 
#        150
#        10971
#        22376
#        34938
#        55987
#        72878
#        85531
#        96063
#        112133
#        122797
#        139593
#        152968
#        166288
#        180040
#        191170
#        208318
#        222826
#        240788
#        257455
#        271119
#        285026
#        297824
#
# Disc length: 4212 seconds
#
# Revision: 2
# Processed by: cddbd v1.5.2PL0 Copyright (c) Steve Scherf et al.
# Submitted via: ExactAudioCopyFreeDBPlugin 1.0
#
DISCID=32107216
DTITLE=Ann Sexton - Anthology
DYEAR=2004
DGENRE=Soul
TTITLE0=You've Been Gone Too Long
TTITLE1=You Got To Use What You Got
TTITLE2=Color My World Blue
TTITLE3=You Can't Lose With The Stuff I Use
TTITLE4=I Had A Fight With Love
TTITLE5=I Still Love You
TTITLE6=You're Losing Me
TTITLE7=It's All Over But The Shouting
TTITLE8=Come Back Home
TTITLE9=Keep On Holding On
TTITLE10=I'm His Wife (You're Just A Friend)
TTITLE11=You've Been Doing Me Wrong For So Long
TTITLE12=Who's Gonna Love You
TTITLE13=Let's Huddle Up And Cuddle Up
TTITLE14=Love Love Love (I Want To Be Loved)
TTITLE15=I Want To Be Loved
TTITLE16=Be Serious
TTITLE17=Loving You Loving Me
TTITLE18=You're Letting Me Down
TTITLE19=You're Gonna Miss Me
TTITLE20=Have A Little Mercy
TTITLE21=Sugar Daddy
EXTD=
EXTT0=
EXTT1=
EXTT2=
EXTT3=
EXTT4=
EXTT5=
EXTT6=
EXTT7=
EXTT8=
EXTT9=
EXTT10=
EXTT11=
EXTT12=
EXTT13=
EXTT14=
EXTT15=
EXTT16=
EXTT17=
EXTT18=
EXTT19=
EXTT20=
EXTT21=
PLAYORDER=
